<svg xmlns="http://www.w3.org/2000/svg" viewBox="0 0 15000 15000"><defs><style>.cls-1{isolation:isolate;}.cls-15,.cls-2,.cls-6,.cls-7{fill:#fff;}.cls-3{fill:#00a4ff;}.cls-4{fill:#ff6d00;}.cls-5{fill:#00e1ff;}.cls-6,.cls-7{stroke:#1d1d1b;stroke-miterlimit:10;}.cls-6{stroke-width:4px;}.cls-8{fill:red;}.cls-9{fill:#e3051f;}.cls-10{fill:#00798a;}.cls-11{fill:#ffca0d;}.cls-12{fill:#00f2f2;}.cls-13{fill:#ff0;}.cls-14{fill:#702d31;}.cls-15,.cls-16{mix-blend-mode:screen;}.cls-16{fill:#fdffff;}.cls-17{fill:#00bdff;}.cls-18{fill:#ff0025;}.cls-19{fill:#ff8710;}.cls-20{fill:#c3d100;}.cls-21{fill:#016334;}.cls-22{fill:#004f27;}.cls-23{fill:#91c53c;}.cls-24{fill:#181003;}.cls-25{fill:#005bed;}.cls-26{fill:lime;}.cls-27{fill:aqua;}.cls-28{fill:blue;}.cls-29{fill:#f0f;}.cls-30{fill:#c1272d;}.cls-31{fill:#ed1c24;}.cls-32{fill:#f15a24;}.cls-33{fill:#f7931e;}.cls-34{fill:#fbb03b;}.cls-35{fill:#fcee21;}.cls-36{fill:#d9e021;}.cls-37{fill:#8cc63f;}</style></defs><title>VBBV</title><g class="cls-1"><g id="Capa_1" data-name="Capa 1"><ellipse class="cls-2" cx="11472.4" cy="7674.89" rx="1963.36" ry="1290.37" transform="translate(848.28 16486.69) rotate(-73.45)"/><path class="cls-3" d="M851.08,4638.92c156.78-81.35,1418.68-452.73,2297.29-410.54C3421.1,4401,3498.46,4612.1,3270.66,4883.5L1427.59,5232.89c-4.37,468.53,36.89,870.67,148.49,1170.48,0,0,1513.33-255.49,1633.43-218.37,172.52,67.69,323.19,701,200.9,806.76C3355.79,7055.32,2597,7302,2177.7,7361.92c-146.39,20.92-203.09,126.77-203.09,126.77-78.61,160.5,13.26,545.2,173.61,782.86,100.53,143.21,1878-207.33,1987.19-260.95,184.73-90.72,361.41,636.56,148.5,838.55S2198.44,9474.24,1908,9373.25s-611.38-406.74-647.48-479.33c-34.28-69-723.91-2571.35-680.23-3634.82C548.11,5035.49,694.3,4720.27,851.08,4638.92Z"/><path class="cls-4" d="M4231.5,9984.69c406.89,25,702.41-44.16,759.94-314.46-182.22-436.52-524.1-1399.77-380-1423.79s799.24,1377.94,2039.6,1502.41c332.07-105.82,488.77-344.44,550.3-655.12C6985.56,7972.17,6915.12,6679.44,6144.45,6211.2c-249.52-5.28-499.95-11.63-585.24,174.7C5922,6819.51,6329.52,8420.59,6196.86,8622,5951.09,8429.58,4564.52,6794.26,4428,6751.68s-449.85,240.08-449.85,240.08C3779.48,9384.69,4152.88,9519.56,4231.5,9984.69Z"/><path class="cls-5" d="M6575.1,8863.59c-27.25-54.16-49.08-107.3-64-158.75A1653,1653,0,0,0,6575.1,8863.59Z"/><path class="cls-5" d="M7250.36,8485.17c-46.71-48.24-78.18-98.33-97.31-148.09C7191.3,8393.27,7224.13,8447.6,7250.36,8485.17Z"/><ellipse class="cls-6" cx="11706.69" cy="6906.63" rx="1088.25" ry="1134.83"/><circle class="cls-6" cx="11320.98" cy="7072.87" r="280.61"/><circle class="cls-7" cx="11398.44" cy="7741.7" r="73.96"/><path class="cls-8" d="M5001.8,10179.3a42.64,42.64,0,0,1-11.64-83.64c414.56-118,777.87-354.11,1143.36-743.09,1077.65-1242.42,2023.2-1584.79,3064.72-1108.83a41.34,41.34,0,0,1,5.93,3.3c1097.72,732.1,2365.23,1367.9,3443.18,533.29,424-353.93,591.91-1190,397.89-1987.06-231.47-950.89-884.17-1611.36-1790.72-1812-636.5-118-1453.55,28.36-2647.88,474.87-158.82,67.94-314.38,152.58-464.87,234.44-404.9,220.29-823.57,448-1324.65,354-887.33-147.62-1591.77-602.61-2216-1431.7a42.63,42.63,0,0,1,68.11-51.29c610.28,810.53,1297.52,1255.08,2162.78,1399,472.11,88.68,859.21-122,1269.06-344.93,152.48-83,310.18-168.76,473-238.34.6-.26,1.21-.5,1.81-.73C9786,4924.09,10617.3,4776.4,11271.5,4897.68c501.8,111.06,922.94,351.08,1253.14,713.68,286.29,314.38,495,716.11,603.45,1161.75,97.54,400.77,109.57,827.38,33.85,1201.26-76.63,378.34-240.41,688.16-461.19,872.4-493.89,382.42-1049.76,498.67-1700.56,356.41-523.07-114.37-1108-395.06-1840.48-883.31C8485.77,8012.75,7540.23,7861,6196.79,9409.68c-377.63,402-753.27,645.6-1183.3,768A42.2,42.2,0,0,1,5001.8,10179.3Z"/><path class="cls-9" d="M4934.52,2899.11c0-2.86-3.67-2.58-5.29-1.39-24.56,17.79-73.62-25.89-87.56-40.77-18.29-19.59-34.26-41.21-52.64-60.61-33.17-35.21-73.17-65.43-117.94-84.35-63.14-26.62-155.33-45.76-213.49,1.27-.76.14-1.67.16-2.43.36a6.55,6.55,0,0,0-5.32,6.44c-.33.3-.62.49-1,.8s0,1.07.5.7a2.18,2.18,0,0,1,.52-.38c0,.54,0,1.13.1,1.67.3,6,9.35.8,9.2-3.84,0-.19,71.58,5.17,79.22,6.92,33.22,7.44,67.92,15.61,97.55,32.42,27.75,15.65,59,29,81,52.84s44.66,47.11,67.46,70.12c40.35,41,69.32,69.32,128.36,75.17C4938.53,2959,4934.82,2913.73,4934.52,2899.11Z"/><path class="cls-10" d="M4887.32,3192.47a2.19,2.19,0,0,0-1.4-3c-59.32-13.36-106.49-76.76-133.63-127.36-27.21-51-48.21-104.92-74.19-156.4-27-53.47-58.3-103.54-99.29-147.47-30.26-32.49-79.27-42.56-121.39-47.3a1.34,1.34,0,0,0-1.16,1c-2-.36-3.86-1-5.78-1.25-3-.46-7.69,4.88-3.6,5.77,80.41,17.33,130.72,98,164.4,166.82,34.1,69.87,57.19,144,82.92,217.1,24.43,69.43,66.91,104.17,130,139.64C4858,3259,4876.65,3217.62,4887.32,3192.47Z"/><path class="cls-11" d="M4928.23,3123.85c-89.21-43-146-115.22-200.51-195.78a588.63,588.63,0,0,0-112.8-123.68c-45.28-37.66-96-86.43-158.08-84.84a4.09,4.09,0,0,1-2.61-.7c109.22-65,233.44,78.33,297.21,152.88,9.62,11.3,19.51,22.71,29.88,34,4.25,4.95,8.66,9.9,13.23,14.72,20.19,21.38,45.68,47.55,74.32,67.2,37.36,27.84,78.5,48.37,124.3,54.55-11.9,29.48-34.64,52.18-54.44,77.12C4936.41,3122.24,4932.28,3125.82,4928.23,3123.85Z"/><path class="cls-9" d="M2991.48,4653.15c-10.31-58.52-40.89-85.16-84.8-122.18-24.74-20.94-49.72-41.83-75.15-61.86s-41.18-50.26-58.94-76.65c-19.07-28.21-29.86-62.24-39.82-94.72-2.37-7.57-13.31-78.48-13.31-78.48,4.91-.21,9.34-9.52,3.39-9.47l-1.61.05a1.77,1.77,0,0,1,.26-.6c.33-.54-.31-.83-.73-.39-.21.29-.47.65-.75,1a6.61,6.61,0,0,0-6,5.79c-.07.78-.05,1.69-.08,2.52-42.44,61.54-16.2,152,15.21,212.87,22.28,43.24,55.57,80.77,93.11,111.11,20.82,16.78,43.62,31.1,64.54,47.79,15.89,12.77,63.33,58.21,47.41,84.09-1.09,1.71-1,5.43,1.85,5.28C2950.54,4678.48,2996,4678.68,2991.48,4653.15Z"/><path class="cls-10" d="M3267.36,4542.92c-40.27-60.12-78.16-99.8-149.23-118.79-74.81-20.05-150.61-37.28-222.92-65.95-71.17-28.21-155.5-72.17-179-151-1.19-4-6.11,1-5.47,4,.45,2,1.17,3.77,1.69,5.67-.46.26-.93.76-.85,1.24,7.92,41.67,21.81,89.69,56.55,117.45,47,37.49,99.21,64.83,154.64,87.62,53.38,22,108.79,38.65,161.66,61.89,52.62,23.09,119.41,65.2,137.37,123.35a2.11,2.11,0,0,0,3,1.19C3249.06,4597,3288.92,4575.19,3267.36,4542.92Z"/><path class="cls-11" d="M3159.63,4655.64c-49.8-85.64-126.19-136.64-210.76-184.84-49.2-28-92.72-62.36-132-102.86-41-42.26-93.61-89-96.82-151.07a4.11,4.11,0,0,0-.87-2.63c-56.35,114,96.13,226.82,175.38,284.61,12,8.73,24.12,17.72,36.22,27.1q8,5.86,15.69,12.08c22.87,18.55,50.91,41.91,72.77,69,30.65,35,54.33,74.47,64,119.73,28.44-14.19,49.27-38.64,72.62-60.28C3158.61,4663.91,3161.84,4659.52,3159.63,4655.64Z"/><path class="cls-9" d="M4965.63,4993.28s-549.29-1422.8-491.49-2296.15c0,0-990.77,11.25-1717.52-134.6,0,0,50.56,1109.1-46.63,1661.27C2710,4223.8,4443.53,4495.18,4965.63,4993.28Z"/><path class="cls-12" d="M3569.19,3342.44c259.4-225.87,563.77-457.65,893.43-645.27-112.52.68-1025.13,2-1706-134.64C2756.62,2562.53,3122.68,2893.15,3569.19,3342.44Z"/><path class="cls-13" d="M3569.19,3342.44c-446.51-449.29-812.57-779.91-812.57-779.91s50.56,1109.1-46.63,1661.27C2710,4223.8,3049.28,3795.08,3569.19,3342.44Z"/><path class="cls-13" d="M4474.14,2697.13s-3.94,0-11.52,0c-329.66,187.62-634,419.4-893.43,645.27C4066.59,3843,4663.74,4490.89,4965.63,4993.28,4965.63,4993.28,4416.34,3570.48,4474.14,2697.13Z"/><path class="cls-12" d="M2710,4223.8s1733.54,271.38,2255.64,769.48c-301.89-502.39-899-1150.29-1396.44-1650.84C3049.28,3795.08,2710,4223.8,2710,4223.8Z"/><path class="cls-14" d="M4965.89,5002.21a8.76,8.76,0,0,1-6.38-2.42c-514.24-490.53-2233.59-764.49-2250.89-767.19a8.79,8.79,0,0,1-5.88-3.61,9.14,9.14,0,0,1-1.58-6.8c95.92-544.89,47-1648.13,46.54-1659.23a8.94,8.94,0,0,1,10.7-9.15c717.48,143.92,1705.74,134.41,1715.65,134.31a9.27,9.27,0,0,1,6.66,2.85,9,9,0,0,1,2.39,6.72C4426,3559.14,4968.53,4975.88,4974,4990a9.06,9.06,0,0,1-3.39,10.7A8.74,8.74,0,0,1,4965.89,5002.21ZM2720.34,4216.37c133.54,21.74,1695.75,285,2223.89,745.22-82.89-223.29-527.66-1465.47-479.6-2255.47-103.89.62-1018.41,1.85-1698.6-132.54C2771,2692,2809.35,3696.88,2720.34,4216.37Z"/><path class="cls-14" d="M2710.18,4232.74a8.39,8.39,0,0,1-3.95-.86,8.94,8.94,0,0,1-4.35-11.93c5.18-11,528.48-1107.08,1769.39-1531.27a8.93,8.93,0,0,1,5.8,16.89c-1233.51,421.71-1753.87,1511-1759,1522A9,9,0,0,1,2710.18,4232.74Z"/><path class="cls-14" d="M4965.89,5002.21a9,9,0,0,1-7.57-3.77c-916.88-1294.24-2194.84-2418-2207.59-2429.16a8.94,8.94,0,1,1,11.79-13.44C2775.34,2567.05,4054.8,3692.16,4973,4988.1a9,9,0,0,1-2.08,12.48A8.66,8.66,0,0,1,4965.89,5002.21Z"/><path class="cls-15" d="M2786,2651.23s114.29,990.78-33.71,1438.46C2752.33,4089.69,3022.46,3378.64,2786,2651.23Z"/><path class="cls-2" d="M4428.41,2764.15s2.59,850.72,424.74,1957.79C4853.15,4721.94,4335,3698.31,4428.41,2764.15Z"/><path class="cls-2" d="M2792.06,4222.86s1039.68,27.62,2043.41,656.32C4835.47,4879.18,4089.93,4198.1,2792.06,4222.86Z"/><path class="cls-16" d="M2865.2,2599.7s852.3,203.23,1441,123.27C4306.24,2723,3549.87,2888.46,2865.2,2599.7Z"/><polygon class="cls-17" points="3001.09 3380.58 3045.47 3408.53 3093.65 3387.71 3080.83 3438.66 3115.49 3478.06 3063.16 3481.57 3036.37 3526.66 3016.79 3477.97 2965.63 3466.47 3005.95 3432.8 3001.09 3380.58"/><polygon class="cls-17" points="3298.5 3221.86 3322.24 3236.79 3348.01 3225.7 3341.16 3252.89 3359.69 3273.91 3331.69 3275.86 3317.41 3299.93 3306.97 3273.91 3279.63 3267.73 3301.14 3249.77 3298.5 3221.86"/><polygon class="cls-17" points="2962.58 2934.46 2986.01 2949.41 3011.72 2938.57 3004.69 2965.52 3022.91 2986.54 2995.15 2988.19 2980.79 3012.03 2970.6 2986.18 2943.5 2979.86 2964.95 2962.15 2962.58 2934.46"/><polygon class="cls-18" points="4050.91 3600.44 4095.32 3628.39 4143.48 3607.59 4130.64 3658.47 4165.31 3697.92 4112.92 3701.45 4086.21 3746.59 4066.68 3697.85 4015.45 3686.35 4055.79 3652.74 4050.91 3600.44"/><polygon class="cls-18" points="4434.85 4062.68 4456.23 4076.08 4479.34 4066.08 4473.19 4090.51 4489.8 4109.43 4464.66 4111.17 4451.86 4132.81 4442.38 4109.45 4417.87 4103.9 4437.16 4087.75 4434.85 4062.68"/><polygon class="cls-18" points="4348.36 3441.73 4372.06 3456.66 4397.88 3445.51 4390.99 3472.76 4409.54 3493.78 4381.51 3495.74 4367.23 3519.79 4356.79 3493.78 4329.47 3487.66 4350.96 3469.64 4348.36 3441.73"/><polygon class="cls-18" points="4012.4 3154.33 4035.9 3169.28 4061.54 3158.43 4054.5 3185.34 4072.8 3206.41 4044.97 3208.07 4030.64 3231.88 4020.42 3206.03 3993.39 3199.73 4014.78 3182.03 4012.4 3154.33"/><polygon class="cls-19" points="3330.53 3773.91 3375.01 3801.85 3423.23 3781.09 3410.34 3831.98 3444.99 3871.38 3392.66 3874.89 3365.86 3920.03 3346.36 3871.28 3295.14 3859.78 3335.41 3826.18 3330.53 3773.91"/><polygon class="cls-19" points="3848.73 3953.05 3875.43 3969.76 3904.39 3957.32 3896.67 3987.88 3917.49 4011.51 3886.04 4013.62 3869.94 4040.74 3858.27 4011.52 3827.46 4004.62 3851.61 3984.39 3848.73 3953.05"/><polygon class="cls-19" points="3104.07 4060.06 3130.78 4076.81 3159.73 4064.34 3151.95 4094.88 3172.78 4118.57 3141.38 4120.64 3125.28 4147.73 3113.61 4118.53 3082.82 4111.6 3107.02 4091.42 3104.07 4060.06"/><polygon class="cls-19" points="4328.73 4475.22 4343.88 4484.67 4360.27 4477.6 4355.87 4494.95 4367.67 4508.33 4349.91 4509.59 4340.75 4524.94 4334.14 4508.37 4316.7 4504.39 4330.39 4493.01 4328.73 4475.22"/><polygon class="cls-20" points="3156.59 2759.24 3171.69 2768.77 3188.06 2761.73 3183.74 2779.05 3195.54 2792.44 3177.72 2793.67 3168.64 2808.99 3161.94 2792.46 3144.49 2788.51 3158.25 2777.05 3156.59 2759.24"/><polygon class="cls-20" points="3825.87 2857.35 3850.55 2872.92 3877.32 2861.38 3870.22 2889.66 3889.47 2911.61 3860.4 2913.53 3845.5 2938.63 3834.61 2911.55 3806.18 2905.16 3828.57 2886.46 3825.87 2857.35"/><polygon class="cls-20" points="3430.7 3124.89 3443.87 3133.15 3458.12 3126.99 3454.33 3142.03 3464.59 3153.74 3449.11 3154.79 3441.12 3168.16 3435.38 3153.7 3420.19 3150.32 3432.12 3140.36 3430.7 3124.89"/><path class="cls-5" d="M9706.7,9831.63s-856.6,442.62-1627.22,305c-309.82-55.32-667.32-281.5-932.69-545-132.68-131.84-310.55-323.41-448-522.44-47.21-68.37-89.52-137.59-123.71-205.62a1653,1653,0,0,1-64-158.75c-92.92-270.11-144-656.14,82.42-1043.87,357.43-481.31,1048.77-348.12,1314-130.48,195.13,179.73,56.19,488.93-122.19,494.52-178.38,5.41-158.07-122-395.17-114.41-170.6,5.42-319.87,211.89-237.11,426.48,19.13,49.76,50.6,99.85,97.31,148.09,23.87,34,42.31,54.32,54.84,49.92a2.43,2.43,0,0,0,.67.51,3.71,3.71,0,0,0,.85.68c4.91,4.74,23.86,22.34,53.82,48.91,147.07,129.3,562.89,471.67,932.68,554.42,458.63,102.56,925.9-69.89,987-788.31,61.26-718.42-806.82-1252.41-1655.2-1711-423.31-174-690-311.59-991.36-525.17-804.74-810-520.92-2027.31,26.23-2764.69,367.42-495.19,982.6-698.79,982.6-698.79,630.08-199.19,1231.72-182.78,1790.72,159.43,0,0,721.47,488.08,572,1295-173.3,574.06-868.88,682.71-1192.12,567.8-244.55-103.07-218.49-441.21-52.47-506.7s189.89,61.09,410.58-26.23c220.52-87.33,270.44-526.17-205.46-637.53-1310.25-297-1822.2,453.39-1764.32,1484.91,76,257.92,321.05,584.89,649.54,715.2,380,150.62,690,216.12,812.35,275,272,131.17,713,422.6,789.5,499.09,76.33,76.33,875.65,834.18,998,1690.19C10594.87,9303.44,9706.7,9831.63,9706.7,9831.63Z"/><path class="cls-5" d="M8663.38,5978.64C8541,5919.64,8231,5854.16,7851,5703.49c-328.58-130.3-573.58-457.24-649.66-715.18-57.76-1031.44,454.22-1781.92,1764.46-1484.93,475.82,111.45,425.9,550.3,205.34,637.65s-244.57-39.31-410.54,26.2-192,403.52,52.41,506.63c323.3,114.88,1018.83,6.23,1192.24-567.77,149.4-807-572.14-1295-572.14-1295-558.94-342.2-1160.64-358.63-1790.65-159.41,0,0-615.23,203.48-982.68,698.8-547,737.36-830.86,1954.72-26.21,2764.6,301.45,213.64,561.42,407.3,1013.25,484.79Z"/><path class="cls-5" d="M6698.81,9069.21l-5.41,3.89s-57.37-78.52-118.3-209.51C6609.29,8931.62,6651.6,9000.84,6698.81,9069.21Z"/><path class="cls-5" d="M7305.2,8535.09c-12.53,4.4-31-15.91-54.84-49.92A612.08,612.08,0,0,0,7305.2,8535.09Z"/><path class="cls-5" d="M7367.48,8580.11l-6.94,5.08c-30-26.57-48.91-44.17-53.82-48.91A742.27,742.27,0,0,0,7367.48,8580.11Z"/><path class="cls-21" d="M11799.55,5746.68c-732.43,0-1326.18,593.75-1326.18,1326.19s593.75,1326.18,1326.18,1326.18,1326.19-593.75,1326.19-1326.18S12532,5746.68,11799.55,5746.68Z"/><path class="cls-22" d="M12199.2,6049.62c517.71,183.88,845.68,591.18,732.54,909.72s-434.14-108.37-951.86-292.25S10943.81,6612,11057,6293.45,11681.49,5865.74,12199.2,6049.62Z"/><path class="cls-23" d="M11433.51,8127.52c-520-184.7-791.85-756-607.15-1276s445.16,83.28,965.18,268,1102.67-119.14,918,400.88S11953.52,8312.22,11433.51,8127.52Z"/><circle class="cls-24" cx="11802.62" cy="7123.43" r="446.58" transform="translate(-1580.12 10432.12) rotate(-45)"/><path class="cls-2" d="M12423.41,6938c-54.93,154.64-224.82,235.47-379.45,180.55s-235.47-224.81-180.55-379.45,224.81-235.47,379.45-180.55S12478.33,6783.35,12423.41,6938Z"/><path class="cls-8" d="M12296.84,5590.15c-885.57-151.68-1867.69,608.29-2193.62,1697.44s127.75,2095,1013.33,2246.72S12984.24,8926,13310.17,7836.88,13182.42,5741.84,12296.84,5590.15Zm693.48,2199.55c-247.28,826.34-1023.41,1397.62-1733.54,1276s-1085.33-890.12-838-1716.46,1023.42-1397.62,1733.54-1276S13237.61,6963.36,12990.32,7789.7Z"/><path class="cls-24" d="M13100.49,6257.55c163.08,158.62,636.55,130.94,851.61-116.49-146.26,113.42-320.42,182.06-501.79,128.09,159.89-15,386.67-181.69,457.39-298-91.94,96.26-295.41,162.86-441.25,149.94,67.9-30.8,183-89.29,258.68-224.34-41.44,43.58-180.78,193.33-454.12,160.89,99.84-13.69,200.15-41.62,303.51-180.82-64.32,54.75-214.86,184.27-375.5,127.19,102.7-24.42,235.61-150,256.56-178.93-99.33,74.17-221.08,107.9-370.27,82.6,136.76-52.72,189.15-125,212.49-150.41-67.41,53.92-213,127.29-406,104.71,138.68-35,269.67-178.32,269.67-178.32s-163.87,154.72-420.56,72.1c177.05-4.65,227.3-68.88,257.78-121.13-42.16,46.27-180.34,104.36-355.74,77.84,121-68.4,112.41-148.28,112.41-148.28s-3.66,64.35-279.85,42.65-525.72-198.37-1029.2,96.73c256.13-90,653.91-211.46,1133.6,38.27C12866.36,5891,12911.06,6073.32,13100.49,6257.55Z"/><path class="cls-25" d="M5032.17,10131.78s-96.47-462-197.95-391c-101.63,71.06-339.38,418-156.8,446.41C4860,10215.83,5032.17,10131.78,5032.17,10131.78Z"/><path class="cls-25" d="M5027,10134.41s471.14-25.71,428.55,90.66-316.37,435.58-391,266.44S5027,10134.41,5027,10134.41Z"/><path class="cls-2" d="M827.87,5176.15c-11.08-115.42,29.7-229.7,114.51-310.54,39.8-37.93-20.55-98.16-60.29-60.29-99,94.33-152.58,234.46-139.48,370.83,2.2,22.92,18,42.63,42.63,42.63,21.35,0,44.84-19.57,42.63-42.63Z"/><path class="cls-2" d="M1464.58,4628.91l803.89-142.54c22.69-4,35.47-31.73,29.78-52.44-6.58-23.93-29.69-33.81-52.44-29.78l-803.9,142.55c-22.68,4-35.46,31.73-29.77,52.44,6.57,23.92,29.69,33.81,52.44,29.77Z"/><path class="cls-2" d="M1362.79,6315.87c-1.59,60.22,19.54,122.48,53.14,172.2,35.8,53,83.19,80.4,147,85,126.66,9.05,257.34-10.93,377.31-51.5,51.7-17.48,29.52-99.86-22.67-82.21-101.86,34.44-207.88,51.85-315.47,50-22.63-.4-47.78.75-69.44-7-17.08-6.11-30.84-20.12-41.24-34.55-27.25-37.82-44.62-85.14-43.39-131.89,1.46-54.88-83.8-54.85-85.26,0Z"/><path class="cls-2" d="M3250.41,6720.86c9.67,25.27,35,78.28,5.69,100.08-16.29,12.14-42.49,14.9-61.62,19.89q-37.67,9.84-75.53,18.9Q2967.51,6896,2813.51,6920c-22.76,3.57-35.38,32-29.77,52.44,6.67,24.27,29.61,33.35,52.44,29.77q178.14-27.94,353.18-72c52.31-13.23,117.34-22.39,147.17-73.43,29.45-50.4,15.61-107.55-3.9-158.56-8.22-21.49-28.71-36.3-52.44-29.78-20.57,5.66-38,30.82-29.78,52.44Z"/><path class="cls-2" d="M1837,8296.51,1878.11,8410c12.18,33.64,23.5,69.13,43.11,99.32,39.82,61.29,104.1,86.55,174.67,91.82,73.53,5.49,150-5.74,222.47-17.22a1486.82,1486.82,0,0,0,236.65-58c51.81-17.23,29.61-99.6-22.66-82.21-130.48,43.4-271.9,74.47-410.07,73.21-50.57-.46-103-9.73-131-56.33-15.06-25.12-23.8-53.42-33.72-80.81l-38.34-105.9c-7.84-21.64-29-36.22-52.44-29.77-20.89,5.74-37.65,30.68-29.78,52.44Z"/><path class="cls-2" d="M3781.78,8688.8c25.28,66.9-1.46,139.38-67.44,172.82-37.91,19.21-83.44,25-124.92,31.57-51,8.06-102.43,13.13-154,16.15-23,1.35-42.63,18.63-42.63,42.63,0,22,19.53,44,42.63,42.63a1805.33,1805.33,0,0,0,183.94-20.36c53.06-8.63,108.12-19.32,154.46-48.16,85.29-53.07,126-165,90.15-259.94-8.14-21.53-28.77-36.28-52.44-29.78-20.64,5.68-38,30.79-29.77,52.44Z"/><path class="cls-2" d="M743.45,5154.6c7.89,83.78,35,163.84,83.06,233.24,16.34,23.6,59.25,31.59,73.62,0,17.92-39.43,22.36-79.9,20.75-122.88-1.41-37.49-6.1-75.71,3.21-112.55,17.48-69.2,68.08-123.28,121.22-168.1,29.43-24.83,58.72-50.22,74.35-86.36,14.3-33.06,14-72.83-3.57-104.75-19.67-35.69-59.9-52.93-99.49-45.3-42.24,8.14-74.32,41.12-99.79,73.57C860.2,4893.64,825.1,4979,802.32,5067.34L884.54,5090c9.43-42.28,18.33-86.24,40.71-123.91,15.66-26.35,42.49-54.28,74.66-58.24l-21.52-79.44c-76,44.82-131.69,112.35-164.76,193.67-8.67,21.33,9.43,46.85,29.78,52.44,24.39,6.7,43.73-8.36,52.44-29.78,24.43-60.07,70.08-110,125.57-142.71,33.68-19.87,22.47-84.85-21.51-79.44-57.83,7.12-103.51,37.35-137.55,84.21s-47.66,105.09-60,160.53c-11.89,53.32,68.45,76.07,82.22,22.67,16.48-63.9,39-125.87,74.61-181.78,15.84-24.89,34.52-53,59.32-69.77,6-4.06,13.66-9,20.62-6.75,2.45.8,5,7.21,5.7,13.55,2.36,20.56-16,40.1-32.06,54.91-22.91,21.16-47.69,40-69.61,62.26-45.11,45.87-83.68,101.33-100.4,164.15-9.84,37-10.17,74.77-8.32,112.69,1.66,34.16,6.76,73.31-7.89,105.54h73.62c-39.23-56.64-64.93-121.34-71.42-190.21-2.15-22.92-18-42.63-42.63-42.63-21.38,0-44.8,19.58-42.63,42.63Z"/><path class="cls-2" d="M753.79,5804.36c13.37,18.94,31.85,33.62,55,38.53,23.34,4.95,45.45,2.31,67.11-7.41,35-15.67,59.59-53.71,67-90.44,9.2-45.54-1.66-95.4-42.59-122.12-15.92-10.39-37.4-16.57-56.45-14.6-26.64,2.75-48.15,14.66-63.46,36.92-23.3,33.87-11.08,74.11-15.77,111.73-1.26,10.05,5.66,23.32,12.48,30.14,7.4,7.4,19.53,13,30.15,12.49,11-.5,22.46-4.12,30.14-12.49,8.16-8.89,11-18.26,12.49-30.14,2.77-22.26-1.67-44.71,1.29-66.94l-1.52,11.33a65.77,65.77,0,0,1,4.28-15.59l-4.3,10.18a50.74,50.74,0,0,1,5.46-9.12l-6.66,8.63a50.53,50.53,0,0,1,6.47-6.53l-8.63,6.67a42.1,42.1,0,0,1,9-5.26l-10.19,4.3a47.31,47.31,0,0,1,10.07-2.59l-11.34,1.52a54.76,54.76,0,0,1,12.34.12l-11.34-1.52a59.44,59.44,0,0,1,13.85,3.89l-10.18-4.3a61.06,61.06,0,0,1,11,6.35l-8.62-6.67a55.91,55.91,0,0,1,9,8.79l-6.66-8.63a68.71,68.71,0,0,1,8.46,14.74l-4.3-10.19a81,81,0,0,1,4.7,18.59l-1.52-11.34a101.3,101.3,0,0,1-.3,23.86l1.52-11.33a115.87,115.87,0,0,1-7.2,26.43l4.3-10.18a104.75,104.75,0,0,1-13.26,22.92l6.66-8.63a85.11,85.11,0,0,1-14.29,14.1l8.62-6.66a72.64,72.64,0,0,1-13.75,7.95l10.19-4.29a64.18,64.18,0,0,1-14.16,3.82l11.33-1.53a66.1,66.1,0,0,1-16.51-.06l11.34,1.52a61.33,61.33,0,0,1-14-3.93l10.19,4.3a54.6,54.6,0,0,1-10.7-6.44l8.63,6.67a49.53,49.53,0,0,1-7.44-7.74l6.66,8.63-1.05-1.49c-6.52-9.25-14.23-16.49-25.47-19.59-10.21-2.81-23.8-1.54-32.85,4.3-18.06,11.64-29,38.84-15.3,58.33Z"/><path class="cls-2" d="M894.76,6114.07c54.86,0,55-85.25,0-85.25s-55,85.25,0,85.25Z"/><path class="cls-2" d="M4406.39,6885.17c-139.88-30.07-245,98.55-285,217.22-22.24,66-28.68,136.94-28.11,206.22.31,37.56,2.69,75.06,5.43,112.51,2.42,33.06,2.8,74.38,37.92,90.68,27.47,12.76,65.63-1.86,64.14-36.81a694.15,694.15,0,0,1,45.32-279.23c26.26-68.48,72.84-174,162.3-162.09,22.87,3,42.63-21.77,42.63-42.63,0-25.56-19.7-39.58-42.63-42.63-119.18-15.87-192.32,100.73-232.25,194.62a766,766,0,0,0-60.63,332l64.15-36.81q9.89,19.62,6.72,9.3-1-4.32-.54-1.41c1.48-5.85-1.12-14.87-1.56-20.79-1.13-15.27-2.21-30.53-3.12-45.81-1.82-30.52-3-61.1-2.58-91.67.71-53.08,6.67-105.45,22.86-156.16,14.1-44.16,36.59-86.53,69.47-119.59,28.71-28.87,70.64-53.72,112.76-44.67,53.51,11.5,76.37-70.67,22.67-82.21Z"/><path class="cls-2" d="M4164.58,7721a17.7,17.7,0,0,1,3.3-.82l-11.34,1.53a18.91,18.91,0,0,1,4.32,0l-11.33-1.52a20.84,20.84,0,0,1,5.12,1.42l-10.19-4.3a22.42,22.42,0,0,1,4.62,2.74l-8.63-6.67a23,23,0,0,1,3.77,3.81l-6.67-8.62a20.57,20.57,0,0,1,2.19,3.74l-4.29-10.19a18.38,18.38,0,0,1,1.19,4.15l-1.53-11.33a18.07,18.07,0,0,1,.16,2.44l42.63-42.63-38.11.95a43.85,43.85,0,0,0-42.63,42.63l1.53,11.34a42.58,42.58,0,0,0,11,18.81l8.63,6.66a42.35,42.35,0,0,0,21.51,5.82l38.11-.95a47.53,47.53,0,0,0,30.14-12.49l6.67-8.63a42.55,42.55,0,0,0,5.82-21.51,22,22,0,0,0-.16-2.44c-.49-4.35-.76-9-1.91-13.22a19.53,19.53,0,0,0-.8-2.26c-1.59-4-3-8.17-5.16-11.91-5.34-9.36-12.33-15.49-21-21.56a25.54,25.54,0,0,0-4-2.3c-3.64-1.66-9.59-4.7-14.36-5.56-10.41-1.9-20.94-2.95-31.23.67a41,41,0,0,0-30.54,35.44,32.36,32.36,0,0,0,.77,17l4.29,10.18a42.79,42.79,0,0,0,15.3,15.29l10.18,4.3a43,43,0,0,0,22.67,0Z"/><path class="cls-2" d="M4146.33,7930.94c54.86,0,54.95-85.26,0-85.26s-54.95,85.26,0,85.26Z"/><path class="cls-2" d="M4759.57,7417.51a6349.66,6349.66,0,0,0,627.37,802.63q97.25,105.65,199.29,206.71c39,38.68,99.32-21.58,60.29-60.29-237.13-235.18-455.83-488.94-652.11-759.19q-83.25-114.6-161.22-232.89c-30.09-45.6-104-2.94-73.62,43Z"/><path class="cls-2" d="M5966.32,6379.63c160.2-28,319.78,70,370,223.79,16.95,51.93,99.31,29.7,82.21-22.67-30.46-93.3-91.49-174.08-174.44-227-89.07-56.84-197.18-74.39-300.42-56.31-22.7,4-35.46,31.76-29.78,52.44,6.59,24,29.68,33.76,52.44,29.77Z"/><path class="cls-2" d="M6920.79,9061.76c-29.54,158.25-112.22,328-283.83,365.3-22.5,4.89-35.63,31.11-29.77,52.44,6.39,23.24,29.87,34.68,52.44,29.77,199.76-43.41,308.53-238.2,343.37-424.84,4.22-22.61-6.26-46-29.77-52.44-20.77-5.71-48.2,7-52.44,29.77Z"/><path class="cls-2" d="M4485.88,8121.86c-76.14,40.6-84.9,142.07-92.23,218.26-9.24,96.09-2.56,193,16.92,287.5,4.66,22.56,31.29,35.59,52.44,29.78,23.43-6.44,34.44-29.82,29.78-52.44a886.54,886.54,0,0,1-15.9-240.42c2.53-36.56,6.52-73.73,15.43-109.35,5.94-23.71,13.93-47.63,36.59-59.71,48.44-25.83,5.42-99.46-43-73.62Z"/><path class="cls-2" d="M4747.42,9621.78c-12.52-9,6.9,5,5.52,6.35q-5.73-7.6-1.83-2l1.45,2.32c.18.29,3.94,7.25,3.87,7.28q-3.61-9-1.16-2.51l.88,2.63c.84,2.66,1.56,5.36,2.16,8.08,2.32,10.65-.72.11.2-.26-.25.1.43,7.25.44,8.44,0,2.83-.23,5.63-.3,8.45-.21,9.09,2.12-8.33,0-.19-1.3,4.92-1.88,12.17-4.9,16.38,6-8.34.47-1.65-.94,1s-3,5.34-4.71,7.92q-1.68,2.58-3.48,5.06l2.93-3.73c-1.51,2.94-4.85,5.73-7.11,8.12-4.31,4.55-9,8.52-13.67,12.66q-3.61,2.94,2.47-1.87-1.89,1.41-3.82,2.73-3.85,2.68-7.85,5.15a180.51,180.51,0,0,1-16.43,9c-1,.48-10.91,4.7-6,2.77,4.72-1.85-5.86,2.09-7,2.5-28.77,10.12-59,15.06-89,20-22.08,3.61-36.34,32.16-29.78,52.44,7.74,23.91,28.79,33.64,52.44,29.78,71.39-11.67,144.8-29.57,191.26-89.7,21.17-27.4,33.74-61.9,30.72-96.85-3.4-39.39-21.1-72.38-53.31-95.5-18.18-13-48.26-3.77-58.33,15.29-11.64,22-4.11,44.41,15.29,58.33Z"/><path class="cls-2" d="M7084.33,5187.24c73.05,190,201.43,352.19,357.8,481.06,172.58,142.23,372.7,242.43,579.57,324.67,120.82,48,243.95,89.91,367,131.72,52.07,17.68,74.42-64.64,22.67-82.22-392.63-133.36-808.57-277.43-1083-606.23-67.61-81-123.94-173.07-161.84-271.66-8.26-21.48-28.68-36.31-52.44-29.78-20.54,5.65-38.08,30.83-29.78,52.44Z"/><path class="cls-2" d="M6640.78,4211.22c-259,330.58-312.93,775-187.61,1170.5,36,113.67,85.52,223.13,146,325.83,27.84,47.23,101.57,4.38,73.62-43-198.42-336.65-264.83-748.14-125-1119.19,36.86-97.79,88.71-191.5,153.2-273.81,14.18-18.11,17.66-42.63,0-60.29-14.76-14.76-46-18.23-60.29,0Z"/><path class="cls-2" d="M9668.5,4252.2c-58.84,111.72-174.32,181.4-293.26,213.82-136.12,37.1-279.68,26.52-416.3-2.27-22.51-4.75-46.08,6.62-52.44,29.77-5.82,21.18,7.14,47.67,29.78,52.44,153.83,32.42,315.52,43.82,468.48.37,136.62-38.81,269.71-122.65,337.36-251.1,25.54-48.51-48-91.65-73.62-43Z"/><path class="cls-2" d="M9127.2,3485.42c204.71,41.74,332.58,260.12,282.68,460.53-13.25,53.25,69,76,82.22,22.67,60.47-242.86-91.49-514.29-342.24-565.41-22.54-4.6-46.05,6.52-52.44,29.77-5.79,21.07,7.11,47.82,29.78,52.44Z"/><path class="cls-2" d="M7174.24,3179.34c114.82-97.48,230.68-195.5,363.92-267.27,127.71-68.79,270.83-110.53,415.45-121.68,82.82-6.38,166.63-3.79,248.67,9.38,22.71,3.65,45.87-5.86,52.44-29.77,5.58-20.31-6.91-48.77-29.77-52.44-157.71-25.32-318.74-19-473.64,20.7-154.48,39.61-295.38,113.26-423.25,207.61-73.91,54.53-144.12,113.77-214.11,173.19-17.56,14.91-15.35,44.94,0,60.28,17.4,17.4,42.68,14.95,60.29,0Z"/><path class="cls-2" d="M13109.82,6531.64c103,234.93,138.4,500.86,100.34,754.54-3.41,22.74,5.71,45.83,29.78,52.44,20.12,5.53,49-6.87,52.44-29.77a1489.34,1489.34,0,0,0-108.94-820.24c-9.24-21.09-40.09-26-58.33-15.29-21.75,12.72-24.57,37.15-15.29,58.32Z"/><path class="cls-2" d="M10550.3,9139.48c72.3,25.48,130.2,81.28,193.8,122.22,65.61,42.24,136.39,76.33,209.7,102.92,145.41,52.73,303.49,72.63,457.37,57.1,22.91-2.31,42.63-17.93,42.63-42.63,0-21.26-19.58-45-42.63-42.63a983.76,983.76,0,0,1-441.46-56.53c-68.46-25.38-133.83-59.3-194.62-99.72-66.33-44.11-125.88-96.07-202.13-122.94-21.71-7.66-46.64,8.68-52.44,29.77-6.47,23.54,8,44.76,29.78,52.44Z"/><path class="cls-2" d="M11014.67,6182c181.29-155.9,396-272.5,625.08-340.64a1754.22,1754.22,0,0,1,202.54-47.19c22.7-3.9,35.44-31.81,29.77-52.44-6.6-24-29.67-33.69-52.44-29.77a1789.29,1789.29,0,0,0-694.24,279,1849.42,1849.42,0,0,0-171,130.8c-17.47,15-15.42,44.87,0,60.29,17.31,17.31,42.77,15.05,60.28,0Z"/><path class="cls-2" d="M9002.19,6436.68c269,98.91,500.21,294.5,647.6,539.75a1227.44,1227.44,0,0,1,103.63,217.63c7.77,21.66,29,36.21,52.44,29.78,20.94-5.76,37.59-30.67,29.78-52.44-104.46-291.18-309.79-541.53-573.64-702.92-75-45.87-154.65-83.69-237.14-114-21.61-7.95-46.7,8.89-52.44,29.77-6.54,23.79,8.08,44.47,29.77,52.44Z"/><path class="cls-2" d="M9966.58,9002c14,158.55-107.33,289.39-219.73,384.51-122.87,104-267.18,180.6-413.9,245.11-82.93,36.46-167.63,68.74-252.53,100.27-21.57,8-36.25,28.86-29.77,52.44,5.7,20.74,30.74,37.83,52.44,29.77,161.84-60.09,323.68-123.56,474.3-208.67,147.67-83.45,292.92-190.5,390.74-331.15,55-79.14,92.31-174.61,83.71-272.28-2-22.93-18.15-42.63-42.63-42.63-21.49,0-44.66,19.56-42.63,42.63Z"/><path class="cls-2" d="M6581.61,8009.12c-36.5,221.18,10.45,451.9,135.63,638.64,30.4,45.35,104.28,2.72,73.62-43-111.8-166.78-159.84-374.21-127-572.95,3.74-22.69-5.94-45.89-29.78-52.44-20.39-5.6-48.67,6.93-52.44,29.78Z"/><path d="M11249.51,10456.16q-49.52-9.39-115.47-27.07t-78.62-49.54q-10.59-75.69,82.68-567,49.16-258.81,80.13-389.22,21.51-65.88,106.49-49.77,28.75,5.48,63.8,27.23t30.81,69.55l-3.12,20q-11.73,61.84-51.1,240l-52.08,245q-27.09,128.19-47.62,236.26-13.36,70.4-12,85.38,3,13.11,57.92,23.51,38.79,7.4,108.25,13.93,40.81,4.07,65,7.92,25.16,6.27,29.91,39.57a114.3,114.3,0,0,1-.59,39.68q-2.56,13.47-12.7,35.87t-41.73,24.49q-37.35-.45-129.94-12.87Q11289,10463.66,11249.51,10456.16Z"/><path d="M11902.16,10503.51q-72,4.41-124.14-33.39t-83.4-103.3q-41.34-84.53-48.19-197.18-3.27-53.44,3.88-120.59t36-136q28.88-68.86,77.71-112.8t118.15-48.18q59.13-3.61,101.53,31.51t67,92.34q25.6,61.51,29.91,132.32a403.72,403.72,0,0,1-9.84,118.06q-13.56,57.34-49,97.25t-92.52,43.35q-36.72,2.25-58.52-8.4t-32.51-24.11q-10.71-13.48-14.67-22.68,12.84,121.05,67,148.17a61.62,61.62,0,0,0,31.81,6.78q40.76-2.49,87.07-59.71,17.16-20.61,33.47-21.62,4.08-.27,16.54,2.62t23.38,25.39a62.84,62.84,0,0,1,6.23,23.55q2.31,38.31-35.67,86.29Q11994.6,10497.87,11902.16,10503.51Zm-36.2-380.63q34.67-2.08,55.9-62.14t17.18-126.48a248.34,248.34,0,0,0-8.44-48.79q-7.09-26.37-28.81-25.06t-37.4,30.19q-15.61,28.88-25.74,69.72a545.79,545.79,0,0,0-13.87,80.25q-4,35.74-2.5,59.6l.26,4.33Q11846.93,10124.06,11866,10122.88Z"/><path d="M12805.91,10310.29q-43.35,16.26-86.54-7.74-23.93-17.29-47.31-75.79-2.48,30.33-5.41,43.78-15.14,76-99.93,107.81l-3.81,1.43q-77.94,23-145.06-10.56t-113.44-98.9q-46.3-65.34-72.73-135.81-38.66-103-38.62-209.67-.52-88.65,33.07-158.08t107.57-97.15q40.17-15.06,72.79-9.53t56.37,21.38q23.76,15.87,36.87,33.34a311.08,311.08,0,0,1-13.57-57.53q-1.6-52.72,69.19-79.27a139.94,139.94,0,0,1,48.3-8.82q44.48.3,64.07,40.88,14.1,35.7,31.64,82.45,62,165.34,119.66,330.74,38.59,110.76,56,166.84,12,41.85-10.67,74.32T12805.91,10310.29Zm-237.79-29.09q31.21-11.72,42.94-59t7.93-112.72q-3.8-65.41-16.67-118.18t-25.59-86.64q-36.84-98.25-87.26-139.65-36.3-28.91-77.73-13.36-40.81,15.3-47.58,77.74t8.38,134.83q15.13,72.42,37.75,132.69,36.58,97.59,83.18,152Q12532.41,10294.6,12568.12,10281.2Z"/><path d="M13214.64,10057.22q-19.95,15.39-58.1,23.32t-80.18-31q-29.3-31.29-117.66-145.95-135.18-175.41-229-310.52-27.48-44.58-4.62-89.64,13.09-26.55,34.67-43.16,14.56-11.22,46.8-22.37t72.35,32q1.73-88.12,62.66-135.1,48-37,105.06-14.27a102.35,102.35,0,0,1,32.19,27.28q31.38,40.71,18.5,85.34-3.77,13-12.94,20-10.23,7.91-29.24,8.37t-31.92,10.44q-11.86,9.15-21.91,35.16t0,78.11q10,52.11,43.59,101.18,45.24,66.53,189.92,262,29,44.34,4.42,81.58A103.7,103.7,0,0,1,13214.64,10057.22Z"/><path d="M13938.62,9310.65q-50.36,70.32-127.67,24.18-50-33.3-97.74-67.41l-163.77-120.56q-38.27-27.37-87.43-60t-97.69-46.91q-48.57-14.22-73.52,20.66-20.61,28.83-11.23,64.81t38.05,71.19a351.49,351.49,0,0,0,63.58,61l339.16,256.1q26.43,24,13.25,67.25a131.82,131.82,0,0,1-19.06,39.1q-12.72,17.75-40.35,37.71t-70.82-9.23q-197.19-138.58-317.81-224.92-132.43-94.77-182-133.62-38.84-35.29-24.41-82.78a126.47,126.47,0,0,1,18.87-40.08q52.31-73.11,113.93-29.84-12.81-44.34-1.33-96.4t34.44-84.21q49.53-69.22,118.16-75t155.24,36.14q76.6,37.24,167.82,102.51,100.07,71.61,247.7,192.34,31.54,29.27,18.77,69.52A101.86,101.86,0,0,1,13938.62,9310.65Z"/><path d="M13375.21,8653.27q-15.54,37.77-42.33,45.93-17.23,7.66-67.6-3.1t-92.12-27.15q-26.56-15.3-18.9-64.44a247,247,0,0,1,15.27-56.28q26.13-63.63,60.32-78.3,15.1-6.3,39.2,3.59t60.3,33.21q36.18,23.33,53.87,52.67,8.88,18.36,3.68,50.09A191.15,191.15,0,0,1,13375.21,8653.27Zm742,286.93q-.51,1.27-7.58,17.49t-37.4,34q-30.35,17.7-70.84,7.71-130.21-37.24-276.16-97.19Q13531,8822.52,13442,8776.38q-60.41-35.82-29.63-110.79,10.36-25.17,37.65-52.64t68.63-15.63q17.64,6.54,52.47,20.8t112.62,47.74q351.84,151,394,168.35,36.15,14.87,43.86,45.61A94.48,94.48,0,0,1,14117.17,8940.2Z"/><path d="M14315.05,8200.81q-13.95,85.35-103.73,78.28-59.59-7.67-117.45-17.1l-200.28-35.47q-46.41-7.59-105-15.07t-108.37,1.28q-49.83,8.78-56.75,51.09-5.7,35,18.68,63.08t65.66,47a350.82,350.82,0,0,0,84,26.48l417.52,79.21q34.35,9.75,41.72,54.42a131.54,131.54,0,0,1,.21,43.5q-3.51,21.5-19.43,51.67t-67.57,23.13q-238.17-36.83-384.59-60.72-160.74-26.25-222.41-39.08-50.46-14.46-58.58-63.38a125.94,125.94,0,0,1-.83-44.29q14.46-88.72,88.85-77.27-31.07-34.05-43.89-85.82t-6.46-90.74q13.71-84,72.7-119.57t155.17-36.43q85.14-.57,195.86,17.52,121.44,19.83,307.29,62.59,41.28,12.24,47.66,54A101.91,101.91,0,0,1,14315.05,8200.81Z"/><path d="M14617.18,7465.91q10.83,58.23,1.6,105.66t-29.89,82.78q-20.68,35.37-44.48,57.78-36.54,33.12-70.68,39.45c-1.42.27-8.36,1.31-20.77,3.16s-23.38-3-32.91-14.67a24.35,24.35,0,0,1-5-10.85q-3-16.05,14-39.32,55.56-73.33,43.63-137.62-1.6-8.69-15.24-48.42t-95.05-73.75q-68.67-28.8-158.3-12.14c-10.92,2-22,4.55-33.2,7.55a153.76,153.76,0,0,1,48.67,20.37q23.39,14.74,41.6,43.55t27.44,78.35q16,86.37-27,153.58t-120.76,110.76q-77.65,43.48-169.47,60.56l-49.81,9.24q-48.37,9-137.51-5.26t-153.75-62.86q-64.6-48.62-80.88-136.3-9-48.21,4.74-83.31t36.12-57.27q22.38-22.16,41.43-30.56l-16.23,3.72q-42.72,7.92-54.92,9.51-47,.45-68.3-42.72a137.52,137.52,0,0,1-12.78-37.1q-5-26.77,4-65.52t59.83-54.4q147.93-35.79,271.75-58.79,124.51-23.13,275-39t272.21,5.18q121.66,21,180.41,77.64T14617.18,7465.91Zm-475.59,82.79q-9.69-52.23-62.39-74.29-78.17-32.55-193.45-11.15-32.73,6.08-82,22.15T13713,7537.6q-41.47,36.12-33.42,79.65,8.22,44.16,46.93,66.4t92,25.85a432,432,0,0,0,108.09-6.56q64.77-12,114.27-34.76t78.43-53.33Q14148.19,7584.19,14141.59,7548.7Z"/><path class="cls-8" d="M4393.64,11828.92q-76.52,0-89.37-54-23-167.66-44.68-190-14.22-8.62-60.26-8.63-61.62,0-129.32,10.79-56.88,8.64-69.06,21.59-1.36,2.88-21.67,64.76-24.37,80.59-38.6,115.14-12.85,24.47-29.1,25.54c-10.83.72-16.94,1.08-18.29,1.08q-27.76,0-51.46-18-20.31-17.27-20.3-48.93l.67-12.23q17.6-100,70.41-285.32t116.8-370.59q64-185.28,115.44-286,22.33-38.13,50.78-46.77t44.68-8.64a110.17,110.17,0,0,1,44,9.36q37.91,15.84,54.17,59,39.26,125.22,120.51,612.38,54.84,328.84,54.85,342.52,0,38.16-40.62,55.41A157.48,157.48,0,0,1,4393.64,11828.92Zm-255.25-356.19a440.08,440.08,0,0,0,64.32-4.32q29.1-4.32,36.56-11.52,3.38-5,3.38-23,0-49.65-21-184.21-29.11-187.83-44.69-195-13.55,3.6-73.79,187.09-56.88,171.27-56.88,211.56,0,19.43,80.57,19.43Z"/><path class="cls-13" d="M4676,12136.19q-103.59,0-118.49-100-9.48-114.41-9.47-336,0-38.87.67-201.13t31.15-352.24q12.85-52.51,62.29-67.64a141.5,141.5,0,0,1,42-6.48q27.75,0,65,15.84t42.66,68.36q10.82-16.55,31.48-35.62t51.46-33.1q30.79-14,72.78-14,69.06,0,117.47,53.25t74.14,136a614.22,614.22,0,0,1,27.08,182q0,91.4-24.71,174.5t-77.86,137.8q-53.16,54.69-135.75,59.73-58.24,0-99.53-34.9t-57.56-74.48l.68,69.08q1.35,53.26,1.37,105.06,0,92.83-4.08,179.18-6.76,54-54.84,69.08A130.18,130.18,0,0,1,4676,12136.19Zm222.08-444q35.19-5,57.54-57.57,34.55-82.74,34.54-209.4,0-34.53-5.08-88.87a328.72,328.72,0,0,0-28.43-105.77q-23.37-51.45-64-51.46-41.31,0-66.35,53.25-37.24,80.61-37.24,208.68,0,38.86,6.09,96.07a297.5,297.5,0,0,0,32.51,107.58q25,47.49,67,47.49Z"/><path class="cls-26" d="M5328.66,11818.85q-25,0-59.92-16.91t-44.35-73q-4.05-42.45-4.06-186.37,0-220.2,8.13-383.55,5.4-51.81,50.77-73.39,26.42-13,53.49-13,18.3,0,50.45,10.8t37.57,69.08q54.86-68.35,131.36-68.36,60.24,0,91.4,52.53a101.69,101.69,0,0,1,8.8,41q0,51.1-37.24,78.44-10.83,7.94-22.35,7.92-12.87,0-28.1-11.16t-31.48-11.15q-14.9,0-38.58,14.39t-47.4,61.53q-23.71,47.13-27.08,106.13-4.76,79.88-9.48,321.66-4.07,52.53-46,66.92A103.21,103.21,0,0,1,5328.66,11818.85Z"/><path class="cls-27" d="M5881.15,11818.85q-71.77,0-121.2-40.66t-76.5-107.58q-35.91-86.34-35.89-198.61,0-53.24,11.18-119.45t44-132.76q32.82-66.56,83.94-107.22t120.18-40.65q58.92,0,98.86,37.42t60.93,95.7q21.67,62.61,21.67,133.12a402.06,402.06,0,0,1-16.92,116.58q-17,56.13-54.51,93.54t-94.45,37.42q-36.57,0-57.56-11.87t-30.8-25.91q-9.83-14-13.21-23.38,5.43,120.88,57.56,151.11a61.16,61.16,0,0,0,31.14,8.64q40.64,0,90.05-54,18.28-19.42,34.54-19.43,4,0,16.24,3.61t21.67,26.62a61.83,61.83,0,0,1,4.74,23.75q0,38.15-40.62,83.47Q5973.23,11818.86,5881.15,11818.85Zm-12.87-379.94q34.53,0,59.25-58.29t24.71-124.49a247,247,0,0,0-5.42-48.93q-5.41-26.62-27.08-26.63t-38.93,27.71q-17.27,27.7-29.79,67.64a544.23,544.23,0,0,0-18.62,78.79q-6.09,35.28-6.09,59v4.32Q5849.32,11438.91,5868.28,11438.91Z"/><path class="cls-28" d="M6611.69,11825.32q-86,0-93.42-89.22-2-59.73-2-118l2.7-202.2q0-46.77-2-105.42t-18.62-106.14q-16.6-47.49-59.24-47.49-35.22,0-58.91,28.42t-35.54,72a349.55,349.55,0,0,0-12.53,86.71l-10.83,422.4q-4.07,35.26-46.72,49.65a130.91,130.91,0,0,1-42.65,7.2q-21.69,0-53.83-10.8t-33.52-62.6q-2-239.62-2-387.14,0-161.91,2.71-224.51,6.09-51.81,52.81-67.64a125.46,125.46,0,0,1,43.33-7.92q89.37,0,90.06,74.84,28.43-36,77.18-56.85t88-20.87q84.61,0,129,52.17t60.6,146.44q14.22,83.47,14.22,195,0,122.34-12.18,311.58-5.43,42.47-45.37,55.41A100.91,100.91,0,0,1,6611.69,11825.32Z"/><path class="cls-29" d="M7240.69,11822.44q-24.39,0-61.28-11.51t-45.7-51.09a238.25,238.25,0,0,1-2-30.22A163,163,0,0,1,7133,11708v-6.47q-16.94,43.17-55.18,78.07t-101.22,37.78q-94.12-2.16-147.6-75.56-74.49-102.17-74.48-274.88,0-64,16.93-151.48t72.78-162.26q55.86-74.83,143.88-79.16,37.9,0,64.32,9t43.33,22.3q16.92,13.33,26.4,27t12.88,23l3.38,9.35q0-32.37,1.69-103.62t5.08-146.44q3.38-75.18,8.8-118.37,10.81-56.11,90-56.13,27.75,0,64.32,13.32t43.33,54.33q5.41,64.75,5.42,464.85,0,399.38-6.77,471.33Q7337.5,11822.46,7240.69,11822.44Zm-214-149q38.6,0,63.31-36t36.22-90.31a545.64,545.64,0,0,0,11.51-113.33v-36q0-33.09-11.51-88.51t-33.17-91.39q-21.69-36-52.14-36-42,0-65.68,49.65-36.56,76.29-36.55,198.61,0,35.26,5.07,88.87a343.58,343.58,0,0,0,26.74,104Q6992.21,11673.49,7026.73,11673.49Z"/><path class="cls-30" d="M7644.89,11818.85q-71.78,0-121.2-40.66t-76.5-107.58q-35.91-86.34-35.89-198.61,0-53.24,11.18-119.45t44-132.76q32.82-66.56,83.94-107.22t120.18-40.65q58.91,0,98.85,37.42t60.94,95.7q21.68,62.61,21.67,133.12a402.06,402.06,0,0,1-16.92,116.58q-16.95,56.13-54.51,93.54t-94.45,37.42q-36.57,0-57.56-11.87t-30.8-25.91q-9.83-14-13.21-23.38,5.43,120.88,57.56,151.11a61.16,61.16,0,0,0,31.14,8.64q40.64,0,90.05-54,18.29-19.42,34.54-19.43,4,0,16.24,3.61t21.67,26.62a61.83,61.83,0,0,1,4.74,23.75q0,38.15-40.62,83.47Q7737,11818.86,7644.89,11818.85ZM7632,11438.91q34.53,0,59.24-58.29t24.72-124.49a247,247,0,0,0-5.42-48.93q-5.43-26.62-27.09-26.63t-38.92,27.71q-17.27,27.7-29.79,67.64a544.23,544.23,0,0,0-18.62,78.79q-6.09,35.28-6.09,59v4.32Q7613.06,11438.91,7632,11438.91Z"/><path class="cls-31" d="M8280,12134.75q-33.85,0-42.66-45.34a90,90,0,0,1-1.35-15.11,62.7,62.7,0,0,1,10.16-34.54q35.2-54,50.1-161.19,18.29-137.43,18.28-389.29l-.68-110.82-.68-92.11q0-87.78,2.71-157.59,3.39-36.69,32.51-52.53a116.07,116.07,0,0,1,52.81-12.23q6.75,0,29.45,2.52t51.79,23.75q29.1,21.22,29.11,57.2,0,290.73-15.23,483.92t-56.2,310.15q-41,116.92-117.47,175.22Q8298.26,12134.73,8280,12134.75Zm116.46-1119q-35.22,0-50.11-19.43-11.52-10.8-19.29-55.41a542.52,542.52,0,0,1-8.47-84.19q3.38-26.61,44.69-36.7a204.68,204.68,0,0,1,50.1-6.48q58.23,0,80.57,22.31,10.16,10.8,10.16,33.82,0,22.32-6.77,59.73t-23.7,61.88q-12.2,13-38.6,19.43A160.32,160.32,0,0,1,8396.43,11015.79Z"/><path class="cls-32" d="M8739,11826.76q-90-6.48-127.28-102.54t-42.66-233.5q-3.39-82.74-3.38-162.63,0-54,1.35-106.5t1.36-97.86q4.05-42.47,52.81-54a136.34,136.34,0,0,1,33.85-4.32q31.82,0,72.44,18t46.72,73.4q.68,31.67.68,65.48,0,59.73-2.71,126.29t-2.71,122.69q0,37.42,2.38,95t29.45,64q45.35-1.42,95.46-211.56,36.55-151.11,53.49-278.47,8.79-42.45,56.2-56.85a145.18,145.18,0,0,1,44.68-7.2q24.38,0,58.91,12.6t37.24,63.68q-.69,36-.68,126.65l.68,117.29q0,223.8-6.1,363.39-7.47,61.17-79.22,61.17-90.72,0-115.09-83.47-6.78-37.41-6.77-158.31,0-26.62.67-48.22-10.17,48.94-33.85,118t-64.66,122.34Q8801.29,11824.61,8739,11826.76Z"/><path class="cls-33" d="M9501.39,12159.94q-58.9,0-103.59-17.63t-75.49-44.26q-30.82-26.62-48.42-54-25.72-41.75-25.72-76.27c0-1.44.22-8.41.68-20.87s7.21-22.31,20.3-29.51a24.2,24.2,0,0,1,11.52-2.87q16.25,0,35.88,20.86,61.61,67.64,126.61,67.64,8.79,0,50.1-6.11t89.38-79.52q40.62-61.89,40.61-152.55,0-16.54-1.35-33.82a153.13,153.13,0,0,1-28.77,43.89q-18.63,20.16-50.11,32.74t-81.58,12.6q-87.35,0-145.23-54.33t-86.32-138.16q-28.44-83.82-28.44-176.66v-50.37q0-48.93,30.13-133.48t89.37-138.88q59.25-54.34,147.94-54.34,48.75,0,80.57,19.79t49.43,45.69q17.6,25.92,22.33,46.06l-.67-16.55q0-43.17.67-55.41,8.15-46,54.18-59a136.52,136.52,0,0,1,38.58-5.76q27.09,0,63.31,15.83t42.31,68.36q8.15,151.11,8.14,276.32,0,125.94-11.86,276t-54.5,265.16q-42.64,115.13-108.66,162.27T9501.39,12159.94Zm5.41-480q52.82,0,84-47.49,46-70.53,46-187.1,0-33.09-6.77-84.19T9595.5,11263q-27.76-47.13-71.77-47.14-44.68,0-73.45,33.83t-42,85.26a428,428,0,0,0-13.21,106.87q0,65.47,13.21,118t37.9,86.35Q9470.92,11680,9506.8,11680Z"/><path class="cls-34" d="M10354.49,11839q-46,0-77.86-37.42-16.25-24.46-17.6-87.07-12.89,27.36-20.32,38.86-40.62,65.48-130.67,65.48H10104q-80.58-5.76-131.34-60.45t-71.1-131.68q-20.31-77-20.31-151.84,0-109.36,37.24-208.68,30.47-82.73,86-135.64t134.06-52.89q42.68,0,71.1,16.55t45,39.58q16.57,23,22.68,43.89a308.64,308.64,0,0,1,7.45-58.28q16.92-49.67,92.08-49.65a139.37,139.37,0,0,1,48.07,8.63q41.3,15.84,45.37,60.45.66,38.15.67,87.78,0,175.59-4.06,349.73-2.71,116.56-6.09,174.86-3.39,43.17-35.89,65.48T10354.49,11839Zm-211.25-110.1q33.18,0,60.6-39.94t46.72-102.18q19.29-62.23,25.72-115.85t6.44-89.59q0-104.32-32.5-160.47-23.7-39.57-67.71-39.58-43.33,0-71.43,55.77t-39.27,128.45q-11.16,72.69-11.16,136.72,0,103.62,24.37,170.54Q10105.33,11728.9,10143.24,11728.9Z"/><path class="cls-35" d="M10994.31,11825.32q-86,0-93.43-89.22-2-59.73-2-118l2.71-202.2q0-46.77-2-105.42t-18.62-106.14q-16.62-47.49-59.25-47.49-35.22,0-58.9,28.42t-35.54,72a348.62,348.62,0,0,0-12.53,86.71l-10.83,422.4q-4.07,35.26-46.72,49.65a131,131,0,0,1-42.66,7.2q-21.69,0-53.83-10.8t-33.51-62.6q-2-239.62-2-387.14,0-161.91,2.71-224.51,6.09-51.81,52.81-67.64a125.38,125.38,0,0,1,43.33-7.92q89.37,0,90.05,74.84,28.42-36,77.18-56.85t88-20.87q84.63,0,129,52.17t60.6,146.44q14.22,83.47,14.21,195,0,122.34-12.18,311.58-5.43,42.47-45.36,55.41A101,101,0,0,1,10994.31,11825.32Z"/><path class="cls-36" d="M11623.3,11822.44q-24.39,0-61.28-11.51t-45.69-51.09a236.41,236.41,0,0,1-2-30.22,161.36,161.36,0,0,1,1.35-21.59v-6.47q-16.95,43.17-55.18,78.07t-101.23,37.78q-94.11-2.16-147.6-75.56-74.49-102.17-74.47-274.88,0-64,16.92-151.48t72.79-162.26q55.86-74.83,143.88-79.16,37.91,0,64.32,9t43.33,22.3q16.91,13.33,26.4,27t12.87,23l3.38,9.35q0-32.37,1.69-103.62t5.08-146.44q3.39-75.18,8.8-118.37,10.83-56.11,90.06-56.13,27.73,0,64.31,13.32t43.34,54.33q5.4,64.75,5.41,464.85,0,399.38-6.77,471.33Q11720.11,11822.46,11623.3,11822.44Zm-214-149q38.61,0,63.31-36t36.22-90.31a545,545,0,0,0,11.52-113.33v-36q0-33.09-11.52-88.51t-33.17-91.39q-21.69-36-52.13-36-42,0-65.68,49.65-36.55,76.29-36.56,198.61,0,35.26,5.07,88.87a343.6,343.6,0,0,0,26.75,104Q11374.83,11673.49,11409.34,11673.49Z"/><path class="cls-37" d="M12053.23,11816.69q-89.37,0-147.6-52.89t-86-137.08q-25.75-78.42-25.73-165.51,0-6.48,1-57.21t32.83-135.28q31.81-84.54,92.76-138.88t151-54.33q77.19,0,130.34,40.3t83.61,105.78q40.62,89.24,40.63,200.77,0,50.37-11.18,114.77t-45.69,130.61q-34.54,66.21-88.7,106.5T12053.23,11816.69Zm27.08-149q44.69,0,71.77-45.34,37.23-64.75,37.24-179.9,0-39.56-7.79-95a315.69,315.69,0,0,0-34.19-105.06q-26.4-49.65-68.38-49.66-38.59,0-64.33,47.5-43.32,78.44-43.32,202.93,0,25.89,4.06,73.75t29.79,96.43q25.72,48.57,72.45,54.33Z"/></g></g></svg>